<svg width="43" height="53" viewBox="0 0 43 53" fill="none" xmlns="http://www.w3.org/2000/svg">
<path d="M21.0731 52.9468H20.9767C20.4048 52.9463 19.844 52.7894 19.3549 52.4931L2.02588 45.4447C1.44734 45.2085 0.952543 44.8049 0.604985 44.2856C0.257427 43.7663 0.072952 43.155 0.075228 42.5301V9.77163C0.0585752 9.11644 0.248373 8.47261 0.617773 7.93123C0.987174 7.38985 1.51747 6.97834 2.13362 6.75493L20.1034 0.194167C20.5827 0.0168346 21.0981 -0.0402438 21.6045 0.0279338C22.111 0.0961114 22.593 0.287464 23.0082 0.585221C23.4235 0.882978 23.7595 1.27805 23.9866 1.73581C24.2137 2.19358 24.3251 2.70006 24.3109 3.21087V12.9301L40.0409 18.8047C40.6395 19.0285 41.1557 19.4296 41.5204 19.9545C41.8852 20.4793 42.0812 21.1029 42.0822 21.742V42.5301C42.0821 43.1545 41.8952 43.7646 41.5456 44.282C41.196 44.7994 40.6996 45.2003 40.1203 45.4334L22.6892 52.4988C22.2008 52.7913 21.6423 52.9461 21.0731 52.9468ZM6.32978 40.432L21.0164 46.403L35.7993 40.4263V23.9195L20.7158 18.283C19.9704 18.1752 19.2888 17.8023 18.7961 17.2325C18.3034 16.6628 18.0327 15.9345 18.0337 15.1813V7.61684L6.34112 11.9094V19.4285L22.2185 24.8325C22.8304 25.0475 23.3603 25.4472 23.7351 25.9764C24.11 26.5057 24.3112 27.1383 24.3109 27.7868V38.7592C24.3566 39.1961 24.31 39.6378 24.1741 40.0555C24.0382 40.4733 23.816 40.8578 23.522 41.1842C23.2279 41.5106 22.8686 41.7716 22.4672 41.9502C22.0659 42.1289 21.6315 42.2212 21.1921 42.2212C20.7528 42.2212 20.3184 42.1289 19.9171 41.9502C19.5157 41.7716 19.1564 41.5106 18.8623 41.1842C18.5683 40.8578 18.3461 40.4733 18.2102 40.0555C18.0743 39.6378 18.0277 39.1961 18.0734 38.7592V30.055L6.36947 26.0856L6.32978 40.432Z" fill="white"/>
</svg>
