<svg width="256" height="319" viewBox="0 0 256 319" fill="none" xmlns="http://www.w3.org/2000/svg">
<path d="M85.8653 318.084C111.841 318.084 100.27 318.084 126.246 318.084L40.3807 151.95H-0.000244141L85.8653 318.084Z" fill="white"/>
<path d="M160.137 288.18C181.614 288.18 172.047 288.18 193.524 288.18L122.53 151.119H89.1428L160.137 288.18Z" fill="white"/>
<path d="M229.924 258.275C246.698 258.275 239.226 258.275 256 258.275L200.552 151.95H174.476L229.924 258.275Z" fill="white"/>
<path d="M229.859 53.976C246.614 53.976 239.15 53.976 255.905 53.976L200.522 151.878H174.476L229.859 53.976Z" fill="white"/>
<path d="M160.197 25.8956C181.692 25.8956 172.117 25.8956 193.612 25.8956L122.558 151.498H89.1428L160.197 25.8956Z" fill="white"/>
<path d="M85.8653 0.09198C111.841 0.09198 100.27 0.09198 126.246 0.09198L40.3807 151.878H-0.000244141L85.8653 0.09198Z" fill="white"/>
</svg>
