<svg width="87" height="142" viewBox="0 0 87 142" fill="none" xmlns="http://www.w3.org/2000/svg">
<path d="M72.929 115.598C70.273 118.428 66.6115 120.103 62.7327 120.262C60.6985 120.285 58.68 119.903 56.7954 119.138C54.9107 118.372 53.1979 117.238 51.757 115.802C50.3161 114.366 49.1762 112.657 48.404 110.776C47.6318 108.894 47.2429 106.877 47.26 104.844V47.4777H84.4764V28.2624H36.2988L43.4872 19.7505C46.0357 16.7261 47.4348 12.8997 47.4383 8.94511V0H23.7064V28.2624H0V47.4777H23.7064V109.303C23.703 113.598 24.5468 117.851 26.1892 121.82C27.8316 125.788 30.2404 129.394 33.278 132.431C36.3156 135.468 39.9222 137.876 43.8916 139.518C47.861 141.16 52.1153 142.003 56.4111 142C67.6166 141.681 78.3898 137.607 87 130.43L73.0821 115.598" fill="white"/>
</svg>
